<?xml version="1.0" encoding="UTF-8"?>
<svg width="22px" height="22px" viewBox="0 0 22 22" version="1.1" xmlns="http://www.w3.org/2000/svg" xmlns:xlink="http://www.w3.org/1999/xlink">
    <title>cart icon</title>
    <g id="Davinci-Resolve-17-Edit-responsive" stroke="none" stroke-width="1" fill="none" fill-rule="evenodd">
        <g id="768px" transform="translate(-487.000000, -617.000000)" fill="#FFFFFF" fill-rule="nonzero" stroke="#FFFFFF" stroke-width="0.5">
            <g id="cards" transform="translate(81.000000, 158.000000)">
                <g id="card-2" transform="translate(308.000000, 55.000000)">
                    <g id="button" transform="translate(0.000000, 391.000000)">
                        <g id="cart-icon" transform="translate(99.000000, 14.000000)">
                            <path d="M8.65814489,15.8050456 C7.56912678,15.8050456 6.68287869,16.6917257 6.68287869,17.7803118 C6.68287869,18.8693299 7.56912678,19.755578 8.65814489,19.755578 C9.747163,19.755578 10.6334111,18.8693299 10.6334111,17.7803118 C10.6334111,16.6912397 9.747595,15.8050456 8.65814489,15.8050456 Z M8.65814489,18.8776459 C8.05329083,18.8776459 7.56081078,18.3855979 7.56081078,17.7803118 C7.56081078,17.1754578 8.05329083,16.6829777 8.65814489,16.6829777 C9.26299895,16.6829777 9.755479,17.1754578 9.755479,17.7803118 C9.755533,18.3855979 9.26343095,18.8776459 8.65814489,18.8776459 Z" id="Shape"></path>
                            <path d="M14.8481115,15.8050456 C13.7590934,15.8050456 12.8728453,16.6917257 12.8728453,17.7803118 C12.8728453,18.8693299 13.7590934,19.755578 14.8481115,19.755578 C15.9366976,19.755578 16.8233777,18.8693299 16.8233777,17.7803118 C16.8233777,16.6912397 15.9366976,15.8050456 14.8481115,15.8050456 Z M14.8481115,18.8776459 C14.2428255,18.8776459 13.7507774,18.3855979 13.7507774,17.7803118 C13.7507774,17.1754578 14.2428255,16.6829777 14.8481115,16.6829777 C15.4525336,16.6829777 15.9454456,17.1754578 15.9454456,17.7803118 C15.9454996,18.3855979 15.4525336,18.8776459 14.8481115,18.8776459 Z" id="Shape"></path>
                            <path d="M19.687052,4.99780851 C19.604108,4.8915905 19.476776,4.8297065 19.341614,4.8297065 L4.50046846,4.8297065 L3.27715234,0.323946033 C3.27450634,0.314280032 3.26748634,0.306828031 3.26397634,0.297594031 C3.25431033,0.269082028 3.23983833,0.244026025 3.22444833,0.218592022 C3.20997633,0.19445402 3.19680033,0.170748018 3.17838633,0.150120015 C3.16040432,0.129492013 3.13934432,0.114102012 3.11736632,0.09747001 C3.09452432,0.0799200082 3.07260032,0.0628020064 3.04668031,0.0500580051 C3.02254231,0.0377460039 2.99662231,0.0316440032 2.9698923,0.0237060024 C2.9413803,0.0153900016 2.9137323,0.00837000086 2.8834383,0.00615600063 C2.87290829,0.00572400059 2.86410629,3.75699472e-13 2.85314429,3.75699472e-13 L0.438966045,3.75699472e-13 C0.19666802,3.75699472e-13 3.58824082e-13,0.19666802 3.58824082e-13,0.438966045 C3.58824082e-13,0.68126407 0.19666802,0.87793209 0.438966045,0.87793209 L2.51737226,0.87793209 L3.73896038,5.37796855 L5.93281861,14.2652355 C5.98109461,14.4614175 6.15713463,14.5992795 6.35904065,14.5992795 L17.1465138,14.5992795 C17.3484198,14.5992795 17.5240278,14.4619035 17.5727358,14.2652355 L19.767458,5.37402655 C19.80029,5.24275254 19.770428,5.10445852 19.687052,4.99780851 Z M16.8031817,13.7213474 L6.70307469,13.7213474 L4.72521649,5.70758459 L18.7814719,5.70758459 L16.8031817,13.7213474 Z" id="Shape"></path>
                        </g>
                    </g>
                </g>
            </g>
        </g>
    </g>
</svg>