<?xml version="1.0" encoding="UTF-8"?>
<svg width="12px" height="15px" viewBox="0 0 12 15" version="1.1" xmlns="http://www.w3.org/2000/svg" xmlns:xlink="http://www.w3.org/1999/xlink">
    <title>icon</title>
    <g id="Design" stroke="none" stroke-width="1" fill="none" fill-rule="evenodd">
        <g id="1440px-DR17-Main-Page-v4-7" transform="translate(-247.000000, -21126.000000)" fill="#FFFFFF" fill-rule="nonzero">
            <g id="21" transform="translate(0.000000, 20337.000000)">
                <g id="davinci-resolve" transform="translate(220.000000, 138.000000)">
                    <g id="text" transform="translate(24.000000, 398.000000)">
                        <g id="link" transform="translate(0.000000, 249.000000)">
                            <g id="icon" transform="translate(3.000000, 4.000000)">
                                <path d="M11.3437307,13 L0.649702416,13 C0.292427649,13 0,13.3060589 0,13.6804653 C0,14.0546567 0.292427649,14.3609307 0.649702416,14.3609307 L11.3502975,14.3609307 C11.7075724,14.3609307 12,14.0546567 12,13.6804653 C12,13.3060589 11.7075724,13 11.3437307,13 Z" id="Path"></path>
                                <path d="M5.51738243,10.3021935 C5.64223663,10.4382435 5.81292606,10.5199166 5.99668158,10.5199166 C6.18064455,10.5199166 6.35133398,10.4382435 6.47598079,10.3021935 L10.3238553,6.02209666 C10.5733563,5.74978156 10.5536535,5.31433531 10.2910862,5.06265345 C10.0283116,4.8040938 9.6081212,4.82429711 9.36525691,5.09661221 L6.65330699,8.11099197 L6.65330699,0.680465299 C6.65330699,0.306058947 6.35776336,0 5.99668158,0 C5.63559986,0 5.34005623,0.306058947 5.34005623,0.680465299 L5.34005623,8.11099197 L2.63474308,5.09661221 C2.38524202,4.82451208 1.97148091,4.8040938 1.70891374,5.06265345 C1.44634658,5.32121304 1.42664365,5.74999648 1.67614467,6.02209666 L5.51738243,10.3021935 Z" id="Path"></path>
                            </g>
                        </g>
                    </g>
                </g>
            </g>
        </g>
    </g>
</svg>