<?xml version="1.0" encoding="UTF-8"?>
<svg width="133px" height="46px" viewBox="0 0 133 46" version="1.1" xmlns="http://www.w3.org/2000/svg" xmlns:xlink="http://www.w3.org/1999/xlink">
    <title>gf-logo-md</title>
    <g id="gf-logo-md" stroke="none" stroke-width="1" fill="none" fill-rule="evenodd">
        <rect id="ring-fill-3" fill="#B73935" fill-rule="nonzero" x="120" y="33" width="12" height="12" rx="3"></rect>
        <rect id="ring-fill-2" fill="#F1651F" fill-rule="nonzero" x="120" y="17" width="12" height="12" rx="3"></rect>
        <rect id="ring-fill-1" fill="#C96331" fill-rule="nonzero" x="120" y="1" width="12" height="12" rx="3"></rect>
        <path d="M123,34 C121.895431,34 121,34.8954305 121,36 L121,42 C121,43.1045695 121.895431,44 123,44 L129,44 C130.104569,44 131,43.1045695 131,42 L131,36 C131,34.8954305 130.104569,34 129,34 L123,34 Z M123,32 L129,32 C131.209139,32 133,33.790861 133,36 L133,42 C133,44.209139 131.209139,46 129,46 L123,46 C120.790861,46 119,44.209139 119,42 L119,36 C119,33.790861 120.790861,32 123,32 Z" id="ring-outline-3" fill="#FFA200" fill-rule="nonzero"></path>
        <path d="M123,18 C121.895431,18 121,18.8954305 121,20 L121,26 C121,27.1045695 121.895431,28 123,28 L129,28 C130.104569,28 131,27.1045695 131,26 L131,20 C131,18.8954305 130.104569,18 129,18 L123,18 Z M123,16 L129,16 C131.209139,16 133,17.790861 133,20 L133,26 C133,28.209139 131.209139,30 129,30 L123,30 C120.790861,30 119,28.209139 119,26 L119,20 C119,17.790861 120.790861,16 123,16 Z" id="ring-outline-2" fill="#FFA200" fill-rule="nonzero"></path>
        <path d="M123,2 C121.895431,2 121,2.8954305 121,4 L121,10 C121,11.1045695 121.895431,12 123,12 L129,12 C130.104569,12 131,11.1045695 131,10 L131,4 C131,2.8954305 130.104569,2 129,2 L123,2 Z M123,0 L129,0 C131.209139,0 133,1.790861 133,4 L133,10 C133,12.209139 131.209139,14 129,14 L123,14 C120.790861,14 119,12.209139 119,10 L119,4 C119,1.790861 120.790861,0 123,0 Z" id="ring-outline-1" fill="#FFA200" fill-rule="nonzero"></path>
        <path d="M108.100009,19.1763852 L108.100009,28.0329842 L108.990398,28.0329842 L108.990398,21.8216539 C109.709069,20.5589158 110.625322,19.9273233 111.739156,19.9273233 C113.262146,19.9273233 114.022792,20.9477944 114.022792,22.9891837 L114.022792,28.0329842 L114.914029,28.0329842 L114.914029,22.6333822 C114.914029,21.4980354 114.630801,20.6089784 114.064344,19.9666581 C113.497887,19.3247849 112.741056,19.0034013 111.792156,19.0034013 C110.648218,19.0034013 109.726453,19.5746506 109.027286,20.7167022 L108.990398,20.7167022 L108.990398,19.1763852 L108.100009,19.1763852" id="Fill-19" fill="#D1D3D4" fill-rule="nonzero"></path>
        <path d="M105.623456,22.3115516 C105.623456,22.9619175 105.402555,23.5188633 104.962448,23.9850706 C104.520645,24.450831 103.994044,24.6846052 103.3801,24.6846052 C102.760643,24.6846052 102.234466,24.449937 101.803263,23.9806008 C101.370788,23.5112645 101.155399,22.9422501 101.155399,22.2740047 C101.155399,21.6307905 101.36782,21.0832315 101.793087,20.6344566 C102.218778,20.1838938 102.741987,19.9590594 103.362292,19.9590594 C103.987684,19.9590594 104.520645,20.1888106 104.962448,20.6487602 C105.402555,21.1087097 105.623456,21.6629735 105.623456,22.3115516 L105.623456,22.3115516 Z M106.336191,30.0716916 C106.336191,30.5861736 106.080522,31.0014244 105.567913,31.3165502 C105.055727,31.632123 104.366735,31.7899094 103.499666,31.7899094 C101.589994,31.7899094 100.634733,31.2432444 100.634733,30.1490204 C100.634733,29.0543494 101.648081,28.5076844 103.672232,28.5076844 C105.448346,28.5076844 106.336191,29.0306591 106.336191,30.0716916 L106.336191,30.0716916 Z M107.227004,19.1763852 L103.860062,19.1763852 C102.711884,19.1763852 101.829975,19.4700557 101.215182,20.0565025 C100.600814,20.6442903 100.294266,21.4032741 100.294266,22.3352419 C100.294266,22.9891837 100.484215,23.5845703 100.865387,24.1214016 C101.24571,24.657339 101.805383,25.0408537 102.54059,25.272393 L102.54059,25.3108339 C101.419124,25.6514379 100.858603,26.1332898 100.858603,26.7546016 C100.858603,27.3714436 101.313125,27.7925053 102.22217,28.0168927 L102.22217,28.0553336 C100.590214,28.3311245 99.7752961,29.0467506 99.7752961,30.2017648 C99.7752961,30.9164969 100.093716,31.4886402 100.73098,31.9217705 C101.36782,32.3553478 102.273049,32.5716895 103.444971,32.5716895 C104.621556,32.5716895 105.541625,32.3428322 106.204329,31.8833296 C106.865337,31.4238271 107.197324,30.7944695 107.197324,29.9925749 C107.197324,29.3127078 106.989991,28.7682777 106.578292,28.3566028 C106.165321,27.9476097 105.365243,27.7062368 104.180602,27.6356129 C102.994264,27.5649889 102.287889,27.4519012 102.061052,27.2972438 C101.831671,27.1421393 101.718464,26.9369723 101.718464,26.6786139 C101.718464,26.4613782 101.808775,26.2669389 101.983885,26.1006598 C102.160691,25.9325927 102.596557,25.7542449 103.289365,25.5647224 C103.982596,25.374753 104.538453,25.1821016 104.95524,24.9858744 C105.372451,24.7900941 105.731151,24.4767562 106.033035,24.0463078 C106.333223,23.6154124 106.484589,23.0320945 106.484589,22.2927781 C106.484589,21.4712161 106.09833,20.6872011 105.325388,19.9429678 L107.227004,19.9429678 L107.227004,19.1763852 L107.227004,19.1763852 Z" id="Fill-18" fill="#D1D3D4" fill-rule="nonzero"></path>
        <polygon id="Fill-17" fill="#D1D3D4" fill-rule="nonzero" points="97.6934818 16.2030282 98.5987106 16.2030282 98.5987106 14.5911933 97.6934818 14.5911933"></polygon>
        <polygon id="Fill-16" fill="#D1D3D4" fill-rule="nonzero" points="97.6934818 28.0329842 98.5987106 28.0329842 98.5987106 19.1763852 97.6934818 19.1763852"></polygon>
        <path d="M93.7655943,19.0034013 C93.0117316,19.0034013 92.3710755,19.2398574 91.844474,19.7127696 C91.3170245,20.1856817 91.0532998,20.7596129 91.0532998,21.4341162 C91.0532998,21.9097103 91.194914,22.3423937 91.4781425,22.7308253 C91.763067,23.1192569 92.3799794,23.5126054 93.3326956,23.9108708 C94.2854119,24.3086892 94.8713726,24.6399065 95.0914259,24.9004999 C95.3093592,25.1606462 95.4187499,25.4453769 95.4187499,25.7533509 C95.4187499,26.2048077 95.2516959,26.5744659 94.920556,26.8641134 C94.5860241,27.153314 94.1611814,27.2972438 93.6417878,27.2972438 C92.8713893,27.2972438 91.9899042,27.0277106 90.9956365,26.4846215 L90.9956365,27.4072025 C91.8304822,27.9511856 92.6708398,28.2207188 93.5188293,28.2207188 C94.2989797,28.2207188 94.9540516,27.9856036 95.4840451,27.5117975 C96.0144625,27.0402263 96.2807312,26.4600372 96.2807312,25.7725713 C96.2807312,25.2585364 96.134029,24.792329 95.8410486,24.3739493 C95.5493402,23.9564635 94.9273399,23.5514933 93.9754717,23.1599328 C93.0265714,22.7688192 92.4448506,22.4456476 92.2337012,22.1931 C92.0208558,21.9396584 91.9161291,21.6634205 91.9161291,21.3630453 C91.9161291,20.9397487 92.089119,20.5848411 92.4355227,20.2960875 C92.7827744,20.0086749 93.2084652,19.8638511 93.7125949,19.8638511 C94.3943785,19.8638511 95.161385,20.1669083 96.0127665,20.7721286 L96.0127665,19.7556803 C95.2025125,19.2550549 94.4545858,19.0034013 93.7655943,19.0034013" id="Fill-15" fill="#D1D3D4" fill-rule="nonzero"></path>
        <path d="M84.5623639,20.6089784 C85.0643737,20.1548396 85.6609343,19.9273233 86.3503498,19.9273233 C87.8076198,19.9273233 88.6937689,20.7940309 89.011341,22.5252113 L83.5613123,22.5252113 C83.7249742,21.7009674 84.0586581,21.0626701 84.5623639,20.6089784 L84.5623639,20.6089784 Z M84.4190537,26.2669389 C83.7491419,25.5812609 83.4146101,24.7422665 83.4146101,23.7539784 C83.4146101,23.5993209 83.424786,23.4446634 83.4421697,23.2926879 L90.065392,23.2926879 C90.065392,21.9713945 89.7062684,20.927233 88.9871733,20.1579685 C88.2693501,19.388704 87.389561,19.0034013 86.3486539,19.0034013 C85.2394835,19.0034013 84.3211109,19.4298268 83.5909919,20.2822309 C82.8596009,21.133294 82.4949654,22.2078506 82.4949654,23.5067946 C82.4949654,24.8754686 82.8905525,26.0050046 83.6821508,26.8913796 C84.473325,27.7786487 85.4735287,28.2207188 86.6848817,28.2207188 C87.878427,28.2207188 88.9545257,27.8304992 89.9165698,27.049166 L89.9165698,25.9831022 C88.8998304,26.8596436 87.8597712,27.2972438 86.7938484,27.2972438 C85.8809876,27.2972438 85.0889654,26.9544048 84.4190537,26.2669389 L84.4190537,26.2669389 Z" id="Fill-14" fill="#D1D3D4" fill-rule="nonzero"></path>
        <path d="M80.1884339,26.4899854 C79.4608589,27.0286046 78.7082682,27.2972438 77.9315098,27.2972438 C76.9304581,27.2972438 76.0968844,26.9409952 75.4299407,26.227604 C74.7621489,25.5133189 74.428465,24.6193451 74.428465,23.5447885 C74.428465,22.4903463 74.7417972,21.6236387 75.3659175,20.9464535 C75.9904617,20.2670334 76.7854519,19.9273233 77.750888,19.9273233 C78.5751338,19.9273233 79.3875078,20.2026672 80.1884339,20.7538021 L80.1884339,26.4899854 L80.1884339,26.4899854 Z M80.1884339,14.5907464 L80.1884339,19.7154515 C79.3086448,19.2407514 78.483551,19.0034013 77.7114565,19.0034013 C76.4979835,19.0034013 75.4888759,19.4414485 74.6845579,20.3157549 C73.8802398,21.1900614 73.4787168,22.2851793 73.4787168,23.6033438 C73.4787168,24.9022878 73.8870237,25.9956178 74.7036376,26.8860158 C75.5198276,27.7768607 76.5225752,28.2207188 77.7114565,28.2207188 C78.5980295,28.2207188 79.4239713,27.9328592 80.1884339,27.355799 L80.1884339,28.0329842 L81.0940867,28.0329842 L81.0940867,14.5907464 L80.1884339,14.5907464 L80.1884339,14.5907464 Z" id="Fill-13" fill="#D1D3D4" fill-rule="nonzero"></path>
        <path d="M70.221165,19.0034013 C69.0352516,19.0034013 68.0600637,19.4454714 67.2964491,20.3296115 C66.5336825,21.2141987 66.1520872,22.3526744 66.1520872,23.7477206 C66.1520872,25.0846585 66.5307145,26.1645789 67.2866972,26.9870348 C68.0431039,27.8099378 69.0352516,28.2207188 70.2614445,28.2207188 C70.9796916,28.2207188 71.75645,28.0705311 72.5951117,27.767474 L72.5951117,26.7818678 C71.8060574,27.1256008 71.0530427,27.2972438 70.3360676,27.2972438 C69.3523997,27.2972438 68.5675854,26.9678144 67.9816246,26.3094027 C67.3952399,25.6496499 67.1031075,24.7610399 67.1031075,23.6417847 C67.1031075,22.5413028 67.3960879,21.647776 67.9824726,20.9594161 C68.5688574,20.2710562 69.330776,19.9273233 70.2673804,19.9273233 C70.9173644,19.9273233 71.6445154,20.1146108 72.4471375,20.4900798 L72.4471375,19.4423425 C71.6139878,19.150013 70.871149,19.0034013 70.221165,19.0034013" id="Fill-12" fill="#FFFFFF" fill-rule="nonzero"></path>
        <polygon id="Fill-11" fill="#FFFFFF" fill-rule="nonzero" points="63.6259264 16.2030282 64.5315792 16.2030282 64.5315792 14.5911933 63.6259264 14.5911933"></polygon>
        <polygon id="Fill-10" fill="#FFFFFF" fill-rule="nonzero" points="63.6259264 28.0329842 64.5315792 28.0329842 64.5315792 19.1763852 63.6259264 19.1763852"></polygon>
        <path d="M61.0009748,22.3115516 C61.0009748,22.9619175 60.7809215,23.5188633 60.339543,23.9850706 C59.8985884,24.450831 59.3715629,24.6846052 58.7571945,24.6846052 C58.1368902,24.6846052 57.6115607,24.449937 57.17951,23.9806008 C56.7487313,23.5112645 56.532494,22.9422501 56.532494,22.2740047 C56.532494,21.6307905 56.7457634,21.0832315 57.1710301,20.6344566 C57.5958729,20.1838938 58.1195064,19.9590594 58.7398107,19.9590594 C59.366051,19.9590594 59.8985884,20.1888106 60.339543,20.6487602 C60.7809215,21.1087097 61.0009748,21.6629735 61.0009748,22.3115516 L61.0009748,22.3115516 Z M61.712862,30.0716916 C61.712862,30.5861736 61.4571932,31.0014244 60.9450075,31.3165502 C60.4328218,31.632123 59.7434063,31.7899094 58.8763371,31.7899094 C56.9670886,31.7899094 56.0131004,31.2432444 56.0131004,30.1490204 C56.0131004,29.0543494 57.0251759,28.5076844 59.0501749,28.5076844 C60.825441,28.5076844 61.712862,29.0306591 61.712862,30.0716916 L61.712862,30.0716916 Z M62.603675,19.1763852 L59.2375806,19.1763852 C58.0885548,19.1763852 57.2074937,19.4700557 56.5935492,20.0565025 C55.9791808,20.6442903 55.6717846,21.4032741 55.6717846,22.3352419 C55.6717846,22.9891837 55.8617343,23.5845703 56.2433296,24.1214016 C56.6236529,24.657339 57.181206,25.0408537 57.9185329,25.272393 L57.9185329,25.3108339 C56.7970667,25.6514379 56.2352737,26.1332898 56.2352737,26.7546016 C56.2352737,27.3714436 56.69022,27.7925053 57.5992648,28.0168927 L57.5992648,28.0553336 C55.967733,28.3311245 55.152391,29.0467506 55.152391,30.2017648 C55.152391,30.9164969 55.4708111,31.4886402 56.1076512,31.9217705 C56.7457634,32.3553478 57.6497202,32.5716895 58.8220657,32.5716895 C59.9999232,32.5716895 60.9199918,32.3428322 61.5822716,31.8833296 C62.2428555,31.4238271 62.5739954,30.7944695 62.5739954,29.9925749 C62.5739954,29.3127078 62.3675099,28.7682777 61.955387,28.3566028 C61.5432641,27.9476097 60.74361,27.7062368 59.5576966,27.6356129 C58.3722073,27.5649889 57.66456,27.4519012 57.4381468,27.2972438 C57.2100376,27.1421393 57.096407,26.9369723 57.096407,26.6786139 C57.096407,26.4613782 57.1845979,26.2669389 57.3614038,26.1006598 C57.5382096,25.9325927 57.9732282,25.7542449 58.6673076,25.5647224 C59.3601151,25.374753 59.9155482,25.1821016 60.3327591,24.9858744 C60.7499699,24.7900941 61.1090935,24.4767562 61.4105538,24.0463078 C61.7107421,23.6154124 61.8616842,23.0320945 61.8616842,22.2927781 C61.8616842,21.4712161 61.475425,20.6872011 60.7033305,19.9429678 L62.603675,19.9429678 L62.603675,19.1763852 L62.603675,19.1763852 Z" id="Fill-9" fill="#FFFFFF" fill-rule="nonzero"></path>
        <path d="M52.8534914,26.2942051 C52.0640132,27.0572118 51.2855588,27.4380446 50.5198242,27.4380446 C50.0449501,27.4380446 49.649787,27.2963498 49.3343349,27.0134071 C49.0180348,26.7295704 48.8603087,26.3809206 48.8603087,25.9683516 C48.8603087,25.2321642 49.238936,24.6287318 49.9953427,24.1544787 C50.7517494,23.6811195 51.7048896,23.4656718 52.8534914,23.5103705 L52.8534914,26.2942051 L52.8534914,26.2942051 Z M53.9596938,27.2972438 C53.8252874,27.2972438 53.7587202,27.1466092 53.7587202,26.844446 L53.7587202,21.3183466 C53.7587202,20.5665146 53.5119553,19.9930304 53.0192734,19.5969999 C52.5265915,19.2018635 51.9007752,19.0034013 51.1401286,19.0034013 C50.2828112,19.0034013 49.3788543,19.3171861 48.430802,19.9438618 L48.430802,20.9133765 C49.3479027,20.1619914 50.2022522,19.7865224 50.9925784,19.7865224 C52.2336111,19.7865224 52.8534914,20.3908487 52.8534914,21.6003954 L52.8534914,22.7281434 C51.2864068,22.8121769 50.0809896,23.1326666 49.2359681,23.6882713 C48.3917945,24.246111 47.9694957,25.0068827 47.9694957,25.9714805 C47.9694957,26.5968152 48.188701,27.1273887 48.6258396,27.5649889 C49.0634022,28.0025891 49.5976356,28.2207188 50.2293878,28.2207188 C51.0985771,28.2207188 51.9724303,27.8550834 52.8534914,27.1220249 C52.889955,27.5658829 52.9471943,27.8604473 53.0269053,28.0043771 C53.1061923,28.1478599 53.2499265,28.2207188 53.455988,28.2207188 C53.8151115,28.2207188 54.3811446,27.9149797 55.154511,27.3017136 L55.154511,26.5150166 C54.5286947,27.0370974 54.1297157,27.2972438 53.9596938,27.2972438 L53.9596938,27.2972438 Z" id="Fill-8" fill="#FFFFFF" fill-rule="nonzero"></path>
        <path d="M34.4873102,19.1763852 L34.4873102,28.0329842 L35.3776992,28.0329842 L35.3776992,21.8216539 C36.0908584,20.5589158 36.935032,19.9273233 37.9089479,19.9273233 C38.5809796,19.9273233 39.114789,20.1919395 39.5150401,20.722513 C39.9144432,21.2517456 40.1132967,22.0071535 40.1132967,22.9891837 L40.1132967,28.0329842 L41.0189495,28.0329842 L41.0189495,21.9955318 C41.4259845,21.27186 41.8202996,20.7453094 42.2031669,20.4185619 C42.5856102,20.0909205 43.0350446,19.9273233 43.5523183,19.9273233 C44.2447017,19.9273233 44.7835991,20.2017733 45.1643464,20.7506732 C45.5480616,21.3000201 45.7392833,22.0514052 45.7392833,23.0084042 L45.7392833,28.0329842 L46.6300963,28.0329842 L46.6300963,22.5949413 C46.6300963,21.509657 46.3629796,20.6407144 45.8283222,19.9858786 C45.2949367,19.3305957 44.5928014,19.0034013 43.7244601,19.0034013 C42.5703464,19.0034013 41.5993984,19.7127696 40.8099201,21.1292711 C40.2854386,19.7127696 39.3797858,19.0034013 38.0938097,19.0034013 C36.9905753,19.0034013 36.0972183,19.5813554 35.4150107,20.7354757 L35.3776992,20.7354757 L35.3776992,19.1763852 L34.4873102,19.1763852" id="Fill-7" fill="#FFFFFF" fill-rule="nonzero"></path>
        <polyline id="Fill-6" fill="#FFFFFF" fill-rule="nonzero" points="32.6043494 19.1763852 27.9734786 23.3870021 33.2763811 28.0329842 34.503846 28.0329842 29.1945835 23.3820853 33.7919588 19.1763852 32.6043494 19.1763852"></polyline>
        <polygon id="Fill-5" fill="#FFFFFF" fill-rule="nonzero" points="26.9495313 28.0329842 27.8394963 28.0329842 27.8394963 14.5907464 26.9495313 14.5907464"></polygon>
        <path d="M23.3790713,19.0034013 C22.193158,19.0034013 21.217546,19.4454714 20.4547794,20.3296115 C19.6924369,21.2141987 19.3104176,22.3526744 19.3104176,23.7477206 C19.3104176,25.0846585 19.6881969,26.1645789 20.4454516,26.9870348 C21.2018582,27.8099378 22.193158,28.2207188 23.4193508,28.2207188 C24.137174,28.2207188 24.9147804,28.0705311 25.753018,27.767474 L25.753018,26.7818678 C24.9635398,27.1256008 24.2109491,27.2972438 23.4939739,27.2972438 C22.5098821,27.2972438 21.7250678,26.9678144 21.139107,26.3094027 C20.5539942,25.6496499 20.2605898,24.7610399 20.2605898,23.6417847 C20.2605898,22.5413028 20.5539942,21.647776 21.139955,20.9594161 C21.7267637,20.2710562 22.4886823,19.9273233 23.4252868,19.9273233 C24.0748467,19.9273233 24.8019978,20.1146108 25.6050439,20.4900798 L25.6050439,19.4423425 C24.7718941,19.150013 24.0290553,19.0034013 23.3790713,19.0034013" id="Fill-4" fill="#FFFFFF" fill-rule="nonzero"></path>
        <path d="M16.5667474,26.2942051 C15.7764212,27.0572118 14.9988148,27.4380446 14.2330803,27.4380446 C13.7582061,27.4380446 13.363891,27.2963498 13.0471669,27.0134071 C12.7312908,26.7295704 12.5744127,26.3809206 12.5744127,25.9683516 C12.5744127,25.2321642 12.9513441,24.6287318 13.7081747,24.1544787 C14.4641574,23.6811195 15.4181456,23.4656718 16.5667474,23.5103705 L16.5667474,26.2942051 L16.5667474,26.2942051 Z M17.6729498,27.2972438 C17.5393914,27.2972438 17.4724003,27.1466092 17.4724003,26.844446 L17.4724003,21.3183466 C17.4724003,20.5665146 17.2260593,19.9930304 16.7325294,19.5969999 C16.2406955,19.2018635 15.6136072,19.0034013 14.8533846,19.0034013 C13.9960672,19.0034013 13.0921104,19.3171861 12.1432101,19.9438618 L12.1432101,20.9133765 C13.0611587,20.1619914 13.9155082,19.7865224 14.7058344,19.7865224 C15.9460191,19.7865224 16.5667474,20.3908487 16.5667474,21.6003954 L16.5667474,22.7281434 C14.9988148,22.8121769 13.7929737,23.1326666 12.9492241,23.6882713 C12.1054745,24.246111 11.6827518,25.0068827 11.6827518,25.9714805 C11.6827518,26.5968152 11.9015331,27.1273887 12.3382477,27.5649889 C12.7762343,28.0025891 13.3108917,28.2207188 13.9422199,28.2207188 C14.8109851,28.2207188 15.6865343,27.8550834 16.5667474,27.1220249 C16.603211,27.5658829 16.6604503,27.8604473 16.7393133,28.0043771 C16.8194483,28.1478599 16.9627586,28.2207188 17.170092,28.2207188 C17.5283676,28.2207188 18.0952486,27.9149797 18.867343,27.3017136 L18.867343,26.5150166 C18.2411028,27.0370974 17.8433957,27.2972438 17.6729498,27.2972438 L17.6729498,27.2972438 Z" id="Fill-3" fill="#FFFFFF" fill-rule="nonzero"></path>
        <polygon id="Fill-2" fill="#FFFFFF" fill-rule="nonzero" points="9.27488548 28.0329842 10.1805383 28.0329842 10.1805383 14.5907464 9.27488548 14.5907464"></polygon>
        <path d="M6.11146054,26.4314301 C5.54373155,26.9266916 4.71524578,27.1738754 3.62303527,27.1738754 L0.980699891,27.1738754 L0.980699891,21.6951566 L3.19352857,21.6951566 C5.70654554,21.6951566 6.96157005,22.6132677 6.96157005,24.4490431 C6.96157005,25.2764159 6.67918953,25.9375095 6.11146054,26.4314301 L6.11146054,26.4314301 Z M0.980699891,15.4511962 L2.31501142,15.4511962 C4.66097445,15.4511962 5.83416797,16.347852 5.83416797,18.1398226 C5.83416797,19.9255353 4.67369429,20.8195092 2.35105097,20.8195092 L0.980699891,20.8195092 L0.980699891,15.4511962 L0.980699891,15.4511962 Z M5.06843342,21.0599882 C6.29165832,20.3600066 6.90263477,19.3632258 6.90263477,18.0665167 C6.90263477,16.9816794 6.54351121,16.1315103 5.82568807,15.5155623 C5.10786493,14.8996143 4.05084598,14.5907464 2.65759919,14.5907464 L0,14.5907464 L0,28.0329842 L3.73454589,28.0329842 C5.04892966,28.0329842 6.09110879,27.7120476 6.86065929,27.0665985 C7.63105778,26.4224903 8.01562103,25.5548887 8.01562103,24.4646876 C8.01562103,22.6441098 7.03322516,21.509657 5.06843342,21.0599882 L5.06843342,21.0599882 Z" id="Fill-1" fill="#FFFFFF" fill-rule="nonzero"></path>
    </g>
</svg>