<?xml version="1.0" encoding="UTF-8"?>
<svg width="30px" height="19px" viewBox="0 0 30 19" version="1.1" xmlns="http://www.w3.org/2000/svg" xmlns:xlink="http://www.w3.org/1999/xlink">
    <title>logo</title>
    <defs>
        <path d="M17.7747404,1.69330272 C18.0818978,1.71187046 18.2149038,1.81799293 18.3426578,1.92964229 C17.6682115,3.01831932 17.017478,4.02723484 16.4146558,5.11293584 C17.6972677,5.72000864 18.92899,6.50571884 20.1096642,7.46953159 C21.9360655,7.12981643 23.8286594,6.89383021 25.7873582,6.76166945 C25.9540541,6.99723824 25.9909307,7.15138644 26.022024,7.30885538 C24.1497652,7.56276973 22.4422814,7.76409604 20.7898511,8.05085923 C23.318647,10.3006434 25.6051067,13.3976857 27.6457982,17.3410754 C27.4820599,17.57807 27.3502506,17.6640222 27.2143537,17.7454773 C24.9291561,13.5976835 22.5547645,10.4354794 19.9162744,8.21077107 C17.9810004,8.58569494 16.1226319,9.08001595 14.3409644,9.69384284 C13.9849242,10.6770814 13.6682682,11.6962831 13.3927738,12.7519588 C15.7701566,14.1074833 18.1572476,15.9854172 20.553134,18.3853802 L20.8799002,18.7158835 L19.9001073,18.7162518 C17.6596381,16.4921323 15.4323198,14.7369987 13.217397,13.451022 C12.8608081,14.9322998 12.5831695,16.4831056 12.3890761,18.1050058 L12.3202162,18.7165539 L11.6131939,18.7159706 C11.8181412,16.7420018 12.1430275,14.8685099 12.5797922,13.0930119 C11.5598882,12.541559 10.5419813,12.0894643 9.52627758,11.7374231 C7.27983727,12.8865277 5.17741105,14.2601833 3.21872741,15.8584041 C2.95412987,15.7015722 2.87205042,15.5662129 2.79519954,15.4277396 C4.62798556,13.816285 6.5519359,12.5357308 8.59453599,11.441836 C6.52187195,10.846356 4.46011107,10.6684813 2.40894023,10.9077968 C2.32859886,10.5939935 2.38492698,10.4305492 2.44790198,10.2702696 C4.84656967,9.9584026 7.15545973,10.2223695 9.47371738,10.9868215 C10.8589968,10.2923606 12.2975432,9.68108838 13.7889993,9.15283379 C13.9314933,8.77205398 14.0793793,8.39593461 14.2330033,8.02506372 C14.6072628,7.12154624 15.0107136,6.25973579 15.4403582,5.43852994 C12.82472,4.34833614 9.99686428,4.01085057 6.95542095,4.42289859 C6.91418385,4.08629583 7.00526399,3.91760852 7.10282727,3.75250603 C10.2626079,3.32905529 13.1227746,3.70672434 15.7716479,4.82434058 C16.3919698,3.70199451 17.0624184,2.65922532 17.7747404,1.69330272 Z M13.3557295,10.0482852 C12.3394293,10.4296189 11.348794,10.8512285 10.3838782,11.3129705 C11.1738945,11.6176308 11.9650098,11.9805578 12.7571791,12.4015489 C12.811314,12.1982927 12.8664674,11.9964399 12.9210589,11.796649 C13.0871584,11.1887667 13.2481625,10.6001319 13.3557295,10.0482852 Z M15.9577937,5.96822504 C15.5778398,6.70833877 15.2191343,7.48260726 14.8841991,8.29119011 C14.8066402,8.4784287 14.7305703,8.66704199 14.6560029,8.85703456 C16.1254846,8.37492537 17.6450173,7.97114144 19.2145575,7.64586895 C18.2086662,6.87322186 17.1653755,6.23277203 15.9577937,5.96822504 Z" id="path-1"></path>
        <filter x="-7.9%" y="-11.7%" width="115.8%" height="123.5%" filterUnits="objectBoundingBox" id="filter-2">
            <feGaussianBlur stdDeviation="0" in="SourceGraphic"></feGaussianBlur>
        </filter>
        <filter x="-11.9%" y="-17.6%" width="123.7%" height="135.2%" filterUnits="objectBoundingBox" id="filter-3">
            <feOffset dx="0" dy="0" in="SourceAlpha" result="shadowOffsetOuter1"></feOffset>
            <feGaussianBlur stdDeviation="1" in="shadowOffsetOuter1" result="shadowBlurOuter1"></feGaussianBlur>
            <feColorMatrix values="0 0 0 0 1   0 0 0 0 1   0 0 0 0 1  0 0 0 0.5 0" type="matrix" in="shadowBlurOuter1"></feColorMatrix>
        </filter>
    </defs>
    <g id="Page-1" stroke="none" stroke-width="1" fill="none" fill-rule="evenodd">
        <g id="Group">
            <path d="M12.1428571,0 C14.6893579,0 16.9529138,1.15085968 18.3886564,2.93495405 C18.8991141,2.79077014 19.440155,2.71428571 20,2.71428571 C22.7798871,2.71428571 25.0961444,4.60006884 25.6086417,7.0985113 C28.1600594,7.90755955 30,10.1960813 30,12.8928571 C30,16.0360462 27.5004886,18.6246327 24.2867249,18.9626207 L24.2857143,19 L5.71428571,19 L5.71471006,18.9627715 C2.50025542,18.6254033 0,16.036514 0,12.8928571 C0,10.2312633 1.79224621,7.96734089 4.29277412,7.13085623 C4.47593101,3.16416317 7.92043097,0 12.1428571,0 Z M12.1428571,1.3950158 C8.75505158,1.3950158 5.97296087,3.87855445 5.73801067,7.02975381 L5.72813955,7.19333299 L5.68439036,8.14082448 L4.76081642,8.44978141 C2.78115968,9.11202257 1.4368071,10.8851754 1.4368071,12.8928571 C1.4368071,15.2440627 3.27456705,17.2290969 5.71577581,17.5574802 L5.86912593,17.5758354 L6.14594235,17.6045182 L23.8551885,17.6045182 L24.1319958,17.5757175 C26.597312,17.3164429 28.4847984,15.3743067 28.5608119,13.0392952 L28.5631929,12.8928571 C28.5631929,10.9095339 27.2511571,9.15678516 25.3165826,8.47609134 L25.1625723,8.42459496 L24.3636665,8.17126393 L24.1995093,7.37099174 C23.8147558,5.49530462 22.0629345,4.10930152 20,4.10930152 C19.6519213,4.10930152 19.3118323,4.1482442 18.9847,4.22433743 L18.7900152,4.27443709 L17.8556154,4.53836768 L17.2564661,3.79384786 C16.0492786,2.29376237 14.1774963,1.3950158 12.1428571,1.3950158 Z" id="Combined-Shape-Copy-5" fill="#0F80D3" fill-rule="nonzero"></path>
            <g id="Combined-Shape-Copy-8" opacity="0.100000001" filter="url(#filter-2)">
                <use fill="black" fill-opacity="1" filter="url(#filter-3)" xlink:href="#path-1"></use>
                <use fill="#0F80D3" fill-rule="evenodd" xlink:href="#path-1"></use>
            </g>
            <path d="M18.2135122,16.0440025 L18.302023,16.0490353 C18.5368406,16.0735858 18.7624293,16.1869955 18.9228121,16.3840102 C19.0822265,16.5798353 19.1469408,16.8213711 19.1223966,17.053665 C19.0978216,17.2862514 18.9838073,17.5093466 18.786721,17.6681047 C18.5884225,17.8278392 18.3437789,17.8922967 18.1086482,17.8677134 C17.8738306,17.8431629 17.6482419,17.7297532 17.4878591,17.5327384 C17.3284447,17.3369134 17.2637304,17.0953775 17.2882746,16.8630837 C17.3128496,16.6304973 17.4268639,16.4074021 17.6239502,16.248644 C17.8222486,16.0889095 18.0668923,16.024452 18.302023,16.0490353 L18.2135122,16.0440025 Z M5.30399687,13.2946497 C5.53912761,13.2700665 5.78377125,13.334524 5.98206967,13.4942584 C6.17915603,13.6530165 6.29317029,13.8761118 6.31774533,14.1086981 C6.34228948,14.340992 6.27757519,14.5825278 6.11816082,14.7783529 C5.95777801,14.9753677 5.73218934,15.0887773 5.49737173,15.1133279 C5.26224099,15.1379111 5.01759735,15.0734536 4.81929893,14.9137192 C4.62221257,14.7549611 4.50819831,14.5318658 4.48362327,14.2992795 C4.45907912,14.0669856 4.52379341,13.8254498 4.68320778,13.6296247 C4.84359059,13.4326099 5.06917926,13.3192003 5.30399687,13.2946497 Z M24.3086861,12.4530114 C24.5005242,12.3720091 24.7234262,12.3638124 24.9319214,12.4476069 C25.1393728,12.530982 25.2935019,12.6898956 25.3745588,12.8798495 C25.4552124,13.0688582 25.4633863,13.2884739 25.3799512,13.493897 C25.2961135,13.7003115 25.1358822,13.8531025 24.9450379,13.9336851 C24.7531997,14.0146873 24.5302977,14.0228841 24.3218025,13.9390895 C24.1143511,13.8557145 23.960222,13.6968009 23.8791651,13.5068469 C23.7985116,13.3178383 23.7903376,13.0982225 23.8737727,12.8927994 C23.9576105,12.686385 24.1178417,12.533594 24.3086861,12.4530114 Z M12.8025399,11.8717566 C13.0765233,11.7616422 13.3694384,11.7724156 13.6215323,11.8788604 C13.8726324,11.9848855 14.0833621,12.185985 14.1936588,12.4575432 C14.3035528,12.7281102 14.2927886,13.0173708 14.186558,13.2663183 C14.0799241,13.5162111 13.8772311,13.7253576 13.6042916,13.8350525 C13.3303081,13.9451668 13.0373931,13.9343934 12.7852992,13.8279487 C12.5341991,13.7219235 12.3234694,13.5208241 12.2131727,13.2492658 C12.1032787,12.9786989 12.1140428,12.6894382 12.2202734,12.4404907 C12.3269074,12.1905979 12.5296003,11.9814514 12.8025399,11.8717566 L12.8025399,11.8717566 Z M8.82690352,10.6113499 C9.03539873,10.5275554 9.25830075,10.5357521 9.4501389,10.6167543 C9.64098325,10.697337 9.80121451,10.850128 9.88505224,11.0565424 C9.96848732,11.2619655 9.96031341,11.4815813 9.87965986,11.6705899 C9.79860294,11.8605438 9.64447383,12.0194575 9.43702248,12.1028325 C9.22852727,12.186627 9.00562525,12.1784303 8.8137871,12.0974281 C8.62294275,12.0168455 8.46271149,11.8640545 8.37887376,11.65764 C8.29543867,11.4522169 8.30361259,11.2326012 8.38426614,11.0435925 C8.46532306,10.8536386 8.61945217,10.6947249 8.82690352,10.6113499 Z M19.6937747,7.40330454 C19.8856128,7.32230231 20.1085148,7.31410558 20.31701,7.39790012 C20.5244614,7.48127514 20.6785905,7.64018879 20.7596474,7.83014273 C20.840301,8.01915136 20.8484749,8.23876712 20.7650398,8.44419022 C20.6812021,8.65060466 20.5209708,8.80339567 20.3301265,8.88397828 C20.1382883,8.96498052 19.9153863,8.97317725 19.7068911,8.88938271 C19.4994397,8.80600769 19.3453106,8.64709404 19.2642537,8.4571401 C19.1836002,8.26813147 19.1754262,8.0485157 19.2588613,7.84309261 C19.3426991,7.63667817 19.5029303,7.48388716 19.6937747,7.40330454 Z M10.4459787,3.15663948 C10.6980726,3.05019471 10.9909877,3.03942134 11.2649711,3.1495357 C11.5379107,3.25923053 11.7406036,3.46837705 11.8472376,3.71826986 C11.9534682,3.96721736 11.9642324,4.256478 11.8543383,4.52704492 C11.7440416,4.79860318 11.533312,4.99970264 11.2822119,5.10572779 C11.030118,5.21217257 10.7372029,5.22294593 10.4632195,5.11283158 C10.1902799,5.00313675 9.98758696,4.79399023 9.88095299,4.54409742 C9.77472241,4.29514992 9.76395823,4.00588928 9.87385227,3.73532236 C9.98414896,3.4637641 10.1948786,3.26266464 10.4459787,3.15663948 Z" id="Combined-Shape-Copy-9" fill="#0F80D3" opacity="0.5"></path>
        </g>
    </g>
</svg>