<?xml version="1.0" encoding="UTF-8"?>
<svg width="210px" height="17px" viewBox="0 0 210 17" version="1.1" xmlns="http://www.w3.org/2000/svg" xmlns:xlink="http://www.w3.org/1999/xlink">
    <title>DAVINCIRESOLVE18</title>
    <g id="Page-1" stroke="none" stroke-width="1" fill="none" fill-rule="evenodd">
        <path d="M5.612,16 C9.858,16 13.334,12.546 13.334,8.278 C13.334,4.054 9.858,0.6 5.612,0.6 L0.398,0.6 C0.178,0.6 0.002,0.798 0.002,1.018 L0.002,15.582 C0.002,15.802 0.178,16 0.398,16 L5.612,16 Z M5.348,13.316 L2.84,13.316 L2.84,3.262 L5.348,3.262 C8.208,3.262 10.298,5.418 10.298,8.278 C10.298,11.16 8.208,13.316 5.348,13.316 Z M16.2545,16 C16.6065,16 16.8045,15.78 16.8925,15.56 L17.9705,13.184 L24.5485,13.184 L25.6265,15.56 C25.7805,15.868 25.9345,16 26.2645,16 L28.1785,16 C28.5085,16 28.6845,15.714 28.5525,15.428 L21.7765,0.622 C21.7105,0.49 21.6225,0.38 21.4025,0.38 L21.1825,0.38 C20.9845,0.38 20.8745,0.49 20.8085,0.622 L13.9665,15.428 C13.8345,15.714 14.0105,16 14.3405,16 L16.2545,16 Z M23.4705,10.742 L19.0485,10.742 L21.2045,5.902 L21.2705,5.902 L23.4705,10.742 Z M34.729,16.22 C34.927,16.22 35.037,16.11 35.103,15.978 L41.923,1.172 C42.055,0.886 41.879,0.6 41.549,0.6 L39.305,0.6 C39.107,0.6 38.975,0.732 38.931,0.842 L34.707,10.302 L34.553,10.302 L30.329,0.842 C30.285,0.732 30.153,0.6 29.955,0.6 L27.711,0.6 C27.381,0.6 27.205,0.886 27.337,1.172 L34.135,15.978 C34.201,16.11 34.311,16.22 34.509,16.22 L34.729,16.22 Z M46.2515,16 C46.4715,16 46.6695,15.802 46.6695,15.582 L46.6695,1.018 C46.6695,0.798 46.4715,0.6 46.2515,0.6 L44.2055,0.6 C43.9855,0.6 43.7875,0.798 43.7875,1.018 L43.7875,15.582 C43.7875,15.802 43.9855,16 44.2055,16 L46.2515,16 Z M63.12,16.22 C63.34,16.22 63.538,16.044 63.538,15.824 L63.538,1.018 C63.538,0.798 63.34,0.6 63.12,0.6 L61.096,0.6 C60.854,0.6 60.678,0.798 60.678,1.018 L60.678,10.104 L60.656,10.104 L51.504,0.38 L50.954,0.38 C50.734,0.38 50.536,0.556 50.536,0.776 L50.536,15.582 C50.536,15.802 50.734,16 50.954,16 L52.956,16 C53.198,16 53.374,15.802 53.374,15.582 L53.374,6.122 L53.396,6.122 L62.592,16.22 L63.12,16.22 Z M74.2245,16.22 C76.1825,16.22 78.0745,15.538 79.5705,14.086 C79.7245,13.932 79.7685,13.646 79.5925,13.492 L78.2285,12.084 C78.0965,11.952 77.8545,11.93 77.6785,12.084 C76.7545,12.832 75.6325,13.338 74.3125,13.338 C71.4965,13.338 69.3845,11.006 69.3845,8.256 C69.3845,5.484 71.4745,3.13 74.2905,3.13 C75.5225,3.13 76.7545,3.614 77.6785,4.428 C77.8545,4.604 78.0745,4.604 78.2285,4.428 L79.5705,3.042 C79.7465,2.866 79.7465,2.602 79.5485,2.426 C78.0525,1.084 76.4465,0.38 74.2245,0.38 C69.8245,0.38 66.2825,3.922 66.2825,8.322 C66.2825,12.722 69.8245,16.22 74.2245,16.22 Z M84.779,16 C84.999,16 85.197,15.802 85.197,15.582 L85.197,1.018 C85.197,0.798 84.999,0.6 84.779,0.6 L82.733,0.6 C82.513,0.6 82.315,0.798 82.315,1.018 L82.315,15.582 C82.315,15.802 82.513,16 82.733,16 L84.779,16 Z M96.23,16 C96.45,16 96.648,15.802 96.648,15.582 L96.648,9.972 L99.09,9.972 L102.016,15.802 C102.06,15.89 102.17,16 102.368,16 L104.678,16 C105.052,16 105.206,15.648 105.052,15.362 L102.038,9.774 C103.952,9.004 105.294,7.354 105.294,5.33 C105.294,2.712 103.138,0.6 100.498,0.6 L94.206,0.6 C93.964,0.6 93.788,0.798 93.788,1.018 L93.788,15.582 C93.788,15.802 93.964,16 94.206,16 L96.23,16 Z M100.256,7.618 L96.67,7.618 L96.67,3.24 L100.256,3.24 C101.422,3.24 102.434,4.208 102.434,5.374 C102.434,6.606 101.422,7.618 100.256,7.618 Z M117.6745,16 C117.9165,16 118.0925,15.802 118.0925,15.582 L118.0925,13.778 C118.0925,13.558 117.9165,13.36 117.6745,13.36 L111.1625,13.36 L111.1625,9.51 L116.5965,9.51 C116.8165,9.51 117.0145,9.334 117.0145,9.092 L117.0145,7.266 C117.0145,7.046 116.8165,6.848 116.5965,6.848 L111.1625,6.848 L111.1625,3.24 L117.6745,3.24 C117.9165,3.24 118.0925,3.042 118.0925,2.822 L118.0925,1.018 C118.0925,0.798 117.9165,0.6 117.6745,0.6 L108.7205,0.6 C108.4785,0.6 108.3025,0.798 108.3025,1.018 L108.3025,15.582 C108.3025,15.802 108.4785,16 108.7205,16 L117.6745,16 Z M125.149,16.22 C128.251,16.22 130.209,14.13 130.209,11.864 C130.209,9.026 127.745,7.75 125.611,6.892 C123.829,6.166 123.015,5.462 123.015,4.428 C123.015,3.724 123.697,2.888 124.951,2.888 C126.161,2.888 127.833,3.988 128.009,4.098 C128.273,4.274 128.603,4.098 128.779,3.834 L129.615,2.58 C129.769,2.36 129.703,1.986 129.483,1.854 C129.043,1.524 127.327,0.38 125.083,0.38 C121.585,0.38 120.133,2.646 120.133,4.604 C120.133,7.2 122.201,8.52 124.269,9.356 C126.117,10.104 127.063,10.874 127.063,11.996 C127.063,12.942 126.205,13.69 125.061,13.69 C123.631,13.69 121.849,12.392 121.739,12.326 C121.541,12.172 121.167,12.172 120.991,12.48 L120.199,13.844 C120.001,14.196 120.111,14.306 120.309,14.504 C120.749,14.922 122.377,16.22 125.149,16.22 Z M139.6855,16.22 C144.0855,16.22 147.6055,12.722 147.6055,8.322 C147.6055,3.922 144.0855,0.38 139.6855,0.38 C135.2855,0.38 131.7875,3.922 131.7875,8.322 C131.7875,12.722 135.2855,16.22 139.6855,16.22 Z M139.6855,13.36 C136.9135,13.36 134.6475,11.094 134.6475,8.322 C134.6475,5.55 136.9135,3.24 139.6855,3.24 C142.4575,3.24 144.7455,5.55 144.7455,8.322 C144.7455,11.094 142.4575,13.36 139.6855,13.36 Z M158.82,16 C159.062,16 159.238,15.802 159.238,15.582 L159.238,13.778 C159.238,13.558 159.062,13.36 158.82,13.36 L153.21,13.36 L153.21,1.018 C153.21,0.798 153.012,0.6 152.792,0.6 L150.768,0.6 C150.526,0.6 150.35,0.798 150.35,1.018 L150.35,15.582 C150.35,15.802 150.526,16 150.768,16 L158.82,16 Z M164.5565,16.22 C164.7545,16.22 164.8645,16.11 164.9305,15.978 L171.7505,1.172 C171.8825,0.886 171.7065,0.6 171.3765,0.6 L169.1325,0.6 C168.9345,0.6 168.8025,0.732 168.7585,0.842 L164.5345,10.302 L164.3805,10.302 L160.1565,0.842 C160.1125,0.732 159.9805,0.6 159.7825,0.6 L157.5385,0.6 C157.2085,0.6 157.0325,0.886 157.1645,1.172 L163.9625,15.978 C164.0285,16.11 164.1385,16.22 164.3365,16.22 L164.5565,16.22 Z M182.987,16 C183.229,16 183.405,15.802 183.405,15.582 L183.405,13.778 C183.405,13.558 183.229,13.36 182.987,13.36 L176.475,13.36 L176.475,9.51 L181.909,9.51 C182.129,9.51 182.327,9.334 182.327,9.092 L182.327,7.266 C182.327,7.046 182.129,6.848 181.909,6.848 L176.475,6.848 L176.475,3.24 L182.987,3.24 C183.229,3.24 183.405,3.042 183.405,2.822 L183.405,1.018 C183.405,0.798 183.229,0.6 182.987,0.6 L174.033,0.6 C173.791,0.6 173.615,0.798 173.615,1.018 L173.615,15.582 C173.615,15.802 173.791,16 174.033,16 L182.987,16 Z M194.548,16 C194.768,16 194.944,15.802 194.944,15.582 L194.944,1.458 C194.944,1.238 194.768,1.04 194.548,1.04 L193.008,1.04 L189.84,3.702 C189.752,3.79 189.708,3.922 189.73,4.098 L189.862,5.176 C189.884,5.374 190.104,5.506 190.302,5.462 L192.238,5.044 L192.238,15.582 C192.238,15.802 192.414,16 192.656,16 L194.548,16 Z M203.8815,16.22 C207.1155,16.22 209.1395,14.394 209.1395,11.996 C209.1395,10.104 207.4675,8.828 206.4775,8.322 L206.4775,8.234 C207.3795,7.706 208.7435,6.518 208.7435,4.846 C208.7435,2.404 206.6315,0.82 203.8815,0.82 C201.2195,0.82 199.1075,2.404 199.1075,4.846 C199.1075,6.562 200.4715,7.772 201.3735,8.256 L201.3735,8.322 C200.7575,8.63 198.7115,10.082 198.7115,11.996 C198.7115,14.394 200.7355,16.22 203.8815,16.22 Z M203.9255,7.046 C202.5395,6.716 201.9235,5.946 201.9235,4.956 C201.9235,3.9 202.8255,3.086 203.8815,3.086 C205.0255,3.086 205.9275,3.9 205.9275,4.956 C205.9275,5.902 205.2895,6.738 203.9255,7.046 Z M203.9255,13.976 C202.7375,13.976 201.6375,13.162 201.6375,11.952 C201.6375,10.962 202.4515,9.95 203.9255,9.62 C205.3995,9.95 206.2135,10.962 206.2135,11.952 C206.2135,13.162 205.1355,13.976 203.9255,13.976 Z" id="DAVINCIRESOLVE18" fill="#FFFFFF" fill-rule="nonzero"></path>
    </g>
</svg>